<?xml version="1.0" encoding="UTF-8" standalone="no"?>
<!DOCTYPE svg PUBLIC "-//W3C//DTD SVG 1.1//EN" "http://www.w3.org/Graphics/SVG/1.1/DTD/svg11.dtd">
<svg width="100%" height="100%" viewBox="0 0 160 48" version="1.1" xmlns="http://www.w3.org/2000/svg" xmlns:xlink="http://www.w3.org/1999/xlink" xml:space="preserve" xmlns:serif="http://www.serif.com/" style="fill-rule:evenodd;clip-rule:evenodd;stroke-linejoin:round;stroke-miterlimit:2;">
    <g id="Fondo" transform="matrix(0.124178,0,0,0.124178,-17.240428,-17.086046)">
        <g transform="matrix(1,0,0,1,245.857011,-10.073341)">
            <path d="M445.496,449.842C433.993,448.907 440.66,439.803 444.238,433.356C459.385,406.071 559.74,219.515 588.99,166.754C600.496,145.999 619.937,153.959 626.071,161.838C628.692,165.203 701.167,298.256 703.021,301.736C764.767,417.641 765.334,417.318 770.65,427.424C777.136,439.755 785.381,449.791 770.5,449.825C723.799,449.929 722.915,450.053 719.903,446.152C718.86,444.801 667.689,351.376 666.674,349.421C665.6,347.35 667.903,333.998 668.695,326.525C670.095,313.326 662.781,318.497 653.537,320.733C650.871,321.379 651.406,319.753 643.702,306.38C610.136,248.118 611.097,241.154 607.83,245.747C607.416,246.328 582.274,292.278 573.889,307.723C567.915,318.728 499.666,444.451 499.14,445.238C495.466,450.746 493.996,449.776 445.496,449.842Z" style="fill:rgb(2,57,114);"/>
        </g>
        <g transform="matrix(1,0,0,1,245.857011,-10.073341)">
            <path d="M379.612,281.142C466.244,315.585 435.708,449.886 340.5,449.856C253.702,449.829 168.067,449.864 166.497,449.835C155.787,449.641 157.897,438.186 157.891,431.499C157.862,399.694 157.107,398.072 162.592,395.729C165.782,394.366 332.268,395.538 346.479,395.079C371.916,394.259 386.063,361.538 372.035,342.86C360.263,327.185 347.944,330.142 306.507,329.837C342.842,302.159 357.019,283.71 378.5,282.184L379.612,281.142Z" style="fill:rgb(54,149,17);"/>
        </g>
        <g transform="matrix(1,0,0,1,245.857011,-10.073341)">
            <path d="M239.506,275.174L238.5,276.763C215.922,288.076 213.36,309.784 195.279,316.01C193.77,316.53 193.306,317.788 193.283,317.809C182.577,311.015 168.819,300.843 159.833,276.375C155.451,264.443 151.36,239.755 159.201,215.41C171.68,176.665 205.61,157.315 231.536,154.961C245.077,153.731 245.079,154.203 401.5,154.446C416.049,154.469 421.891,151.935 421.918,166.498C421.991,205.433 422.434,207.072 417.627,208.823C413.96,210.159 251.22,209.049 241.499,209.46C201.74,211.14 194.326,271.041 239.506,275.174Z" style="fill:rgb(3,98,180);"/>
        </g>
        <g transform="matrix(1,0,0,1,245.857011,-10.073341)">
            <path d="M817.5,449.832C810.482,449.781 803.131,450.9 803.027,438.493C802.951,429.374 802.498,375.159 802.971,324.5C803.253,294.236 802.439,163.512 803.443,160.481C805.841,153.24 814.325,154.461 818.5,154.462C852.869,154.471 857.736,152.853 859.073,162.531C859.131,162.949 859.119,440.544 859.073,441.469C858.568,451.468 849.996,449.873 817.5,449.832Z" style="fill:rgb(2,57,115);"/>
        </g>
        <g transform="matrix(1,0,0,1,245.857011,-10.073341)">
            <path d="M658.077,340.437C651.945,381.748 640.348,407.464 612.621,428.669C588.442,447.161 549.198,451.887 548.223,448.631C547.352,445.724 557.852,419.444 571.717,402.678C597.941,370.968 616.353,370.181 613.762,367.34C612.677,366.151 578.218,381.014 559.924,407.789C550.549,421.51 547.533,430.561 546.821,432.697C542.564,445.471 542.15,405.907 562.845,377.76C582.651,350.823 605.269,343.594 655.43,330.253C660.834,328.816 658.607,336.437 658.077,340.437Z" style="fill:rgb(57,150,16);"/>
        </g>
        <g transform="matrix(1,0,0,1,245.857011,-10.073341)">
            <path d="M239.506,275.174C242.706,275.165 252.375,275.138 279.5,275.144C358.191,275.162 358.528,274.622 379.612,281.142L378.5,282.184C357.019,283.71 342.842,302.159 306.507,329.837C217.767,330.231 216.695,330.688 193.283,317.809C193.306,317.788 193.77,316.53 195.279,316.01C213.36,309.784 215.922,288.076 238.5,276.763L239.506,275.174Z" style="fill:rgb(2,58,116);"/>
        </g>
        <g id="Letras" transform="matrix(1,0,0,1,245.529763,-30.732137)">
            <path d="M734.48,540.07C719.511,539.297 721.926,534.428 722.595,533.576C727.115,527.816 730.007,538.721 738.186,533.079C740.608,531.409 742.73,523.696 738.512,526.522C726.392,534.639 714.24,515.793 723.853,505.852C726.381,503.238 733.122,500.004 738.718,504.15C739.861,504.996 746.497,500.583 746.686,504.468C747.877,528.841 746.15,532.137 745.042,534.25C742.612,538.889 735.435,539.932 734.48,540.07Z" style="fill:rgb(41,49,56);"/>
            <path d="M802.204,508.328C810.104,496.987 818.35,504.404 819.469,504.625C822.334,505.191 820.702,503.132 820.816,494.5C820.891,488.867 826.541,491.842 826.74,492.391C827.415,494.255 826.952,523.808 826.909,526.539C826.828,531.744 819.839,526.858 819.404,527.213C810.825,534.193 794.905,523.975 802.204,508.328Z" style="fill:rgb(43,51,58);"/>
            <path d="M461.496,502.178C476.911,503.531 475,519.966 470.371,525.394C463.583,533.354 454.807,526.422 453.465,527.466C452.487,528.227 452.791,529.022 449.466,528.86C446.391,528.71 447.293,522.004 447.292,514.501C447.29,493.376 446.451,491.285 450.501,491.312C454.999,491.341 453.312,498.888 453.328,503.527C453.334,505.222 454.039,505.365 455.432,504.396C457.556,502.917 457.475,502.645 461.496,502.178Z" style="fill:rgb(41,49,56);"/>
            <path d="M364.148,525.358C365.037,523.041 370.638,508.441 375.357,496.441C378.166,489.299 384.201,493.608 384.531,494.487C396.632,526.777 398.461,528.61 395.583,528.847C389.664,529.332 390.529,527.117 388.163,521.672C387.355,519.812 380.849,520.328 375.498,520.369C370.215,520.409 371.954,528.062 368.559,528.785C364.613,529.626 362.739,529.164 364.148,525.358Z" style="fill:rgb(40,48,55);"/>
            <path d="M834.113,522.723C830.042,515.13 833.891,505.658 840.404,503.249C859.19,496.3 866.286,522.537 851.489,528.476C840.943,532.709 834.939,523.931 834.113,522.723Z" style="fill:rgb(42,50,57);"/>
            <path d="M308.504,502.18C316.787,503.663 317.821,505.651 317.281,526.484C317.191,529.959 311.25,529.864 311.183,526.533C311.073,521.133 313.326,504.699 304.415,508.308C297.306,511.186 304.667,528.778 298.519,528.858C292.803,528.932 294.854,526.167 294.856,520.491C294.857,518.373 296.413,508.409 290.49,507.889C280.392,507.002 288.156,528.652 282.524,528.824C279.231,528.925 278.706,528.573 278.663,525.497C278.368,504.611 277.758,504.114 279.336,503.299C283.125,501.341 283.674,505.504 287.429,503.379C295.447,498.84 297.972,507.783 301.583,504.601C304.44,502.082 307.718,502.239 308.504,502.18Z" style="fill:rgb(42,50,56);"/>
            <path d="M407.861,504.198C410.42,504.48 415.586,499.304 421.371,504.652C424.244,507.309 424.547,502.766 430.474,502.222C443.105,501.062 440.613,519.367 440.613,519.503C440.614,525.972 442.941,529.393 436.467,528.867C433.05,528.589 434.712,526.782 434.353,513.507C434.338,512.962 434.221,508.634 430.43,507.941C422.314,506.459 424.277,522.111 424.266,523.496C424.233,527.53 424.572,528.929 420.486,528.841C414.435,528.71 422.569,508.094 413.486,507.873C406.901,507.714 407.99,517.161 407.927,519.511C407.754,526.081 409.945,529.637 403.44,528.828C400.462,528.457 402.068,503.732 402.398,503.399C404.512,501.268 407.529,503.907 407.861,504.198Z" style="fill:rgb(41,48,56);"/>
            <path d="M173.5,491.94C187.431,493.345 184.548,499.621 181.307,501.028C180.9,501.204 170.855,494.18 168.384,500.448C164.852,509.412 191.038,505.509 185.296,522.43C180.755,535.811 152.429,526.633 162.663,519.745C166.217,517.354 169.375,527.152 177.486,522.48C180.113,520.966 179.903,516.617 177.609,515.336C175.495,514.155 155.258,509.762 162.977,496.795C165.067,493.284 172.584,492.086 173.5,491.94Z" style="fill:rgb(40,48,55);"/>
            <path d="M586.738,526.978C575.792,536.171 562.916,518.683 576.577,513.721C583.508,511.204 590.559,515.588 586.661,509.383C583.215,503.9 575.068,512.794 573.032,507.716C571.039,502.743 593.599,495.943 593.792,513.5C593.911,524.279 594.472,528.83 591.523,528.858C588.838,528.883 588.881,528.63 586.738,526.978Z" style="fill:rgb(44,52,59);"/>
            <path d="M775.364,527.684C774.965,527.305 772.439,524.911 772.351,521.503C772.021,508.642 793.292,516.106 788.324,509.621C784.604,504.765 777.63,509.684 777.538,509.696C773.772,510.19 772.041,504.028 781.48,502.397C797.694,499.597 795.367,517.503 795.125,526.479C795.03,529.998 790.545,528.896 789.752,528.165C786.528,525.193 784.978,532.89 775.364,527.684Z" style="fill:rgb(43,50,57);"/>
            <path d="M247.933,515.52C248.112,514.507 248.066,513.461 248.245,512.448C250.885,497.471 274.59,499.776 272.97,515.581C272.628,518.915 270.87,517.173 256.492,517.402C253.417,517.451 255.021,520.48 255.726,521.338C261.385,528.211 266.686,519.21 270.376,522.639C275.945,527.814 249.299,538.046 247.933,515.52Z" style="fill:rgb(40,48,55);"/>
            <path d="M516.122,512.56C516.358,516.031 517.008,517.403 513.5,517.411C503.175,517.435 495.976,516.117 498.393,520.556C502.279,527.693 511.031,520.89 512.4,521.683C523.379,528.042 490.87,537.219 491.118,515.499C491.288,500.661 511.342,497.232 515.619,510.458C515.841,511.144 515.9,511.875 516.122,512.56Z" style="fill:rgb(41,49,56);"/>
            <path d="M326.463,504.444C326.977,504.154 330.342,502.257 333.484,502.21C346.226,502.017 345.697,510.886 345.162,526.48C345.047,529.812 340.908,529.054 339.783,528.1C338.282,526.827 338.164,527.623 336.462,528.426C325.819,533.449 317.666,520.644 325.77,514.904C330.289,511.704 330.735,513.306 337.59,512.954C342.044,512.725 336.475,504.344 329.648,508.73C325.814,511.193 321.726,508.074 326.463,504.444Z" style="fill:rgb(42,50,57);"/>
            <path d="M692.168,520.621C686.449,497.566 716.921,496.533 716.453,515.495C716.38,518.475 714.68,517.042 699.485,517.378C696.561,517.442 698.358,521.431 700.386,522.666C705.869,526.005 710.333,521.812 710.606,521.693C713.424,520.454 718.187,525.622 709.561,528.668C697.449,532.944 692.772,522.03 692.168,520.621Z" style="fill:rgb(42,50,57);"/>
            <path d="M527.915,519.502C527.902,526.134 529.984,529.64 523.437,528.848C521.438,528.606 521.84,525.471 521.87,508.505C521.88,502.875 523.803,500.385 527.8,504.3C529.255,505.725 529.648,503.264 534.468,502.291C545.083,500.148 545.154,513.202 545.162,514.501C545.203,522.051 545.68,528.524 543.565,528.805C536.383,529.761 539.706,525.333 538.867,512.471C538.449,506.057 528.274,506.154 527.917,514.511C527.846,516.173 527.987,517.84 527.915,519.502Z" style="fill:rgb(42,50,57);"/>
            <path d="M666.049,512.509C665.874,523.715 667.255,528.769 663.508,528.79C658.128,528.82 660.256,524.138 660.002,514.501C659.778,506.011 649.091,503.757 648.963,516.498C648.896,523.216 650.201,528.874 646.514,528.89C640.851,528.914 642.826,526.185 642.827,520.507C642.83,508.685 642.223,503.153 644.549,502.885C648.26,502.457 648.427,505.687 651.53,503.55C651.659,503.461 656.217,500.755 661.58,503.354C665.272,505.143 665.964,511.699 666.049,512.509Z" style="fill:rgb(41,49,56);"/>
            <path d="M212.383,517.922C211.714,517.709 205.902,515.854 204.888,513.348C199.027,498.866 226.932,501.191 222.365,507.4C219.001,511.974 215.426,505.096 211.666,507.761C204.491,512.847 222.712,511.774 224.016,519.61C226.454,534.263 200.458,529.141 203.896,523.763C207.049,518.832 210.572,525.693 215.408,524.192C223.346,521.729 212.909,518.105 212.383,517.922Z" style="fill:rgb(41,49,56);"/>
            <path d="M241.494,508.133C235.829,508.462 237.373,510.79 237.348,516.497C237.323,522.406 237.597,523.738 242.504,523.565C243.716,523.522 248.516,529.838 237.542,529.13C227.019,528.45 234.007,508.987 229.55,508.207C225.673,507.529 225.212,503.829 229.568,502.839C233.149,502.026 229.168,495.544 233.491,495.382C240.712,495.112 235.46,501.522 238.432,502.649C238.742,502.766 245.267,501.883 244.154,506.459C243.658,508.501 241.783,508.069 241.494,508.133Z" style="fill:rgb(41,48,56);"/>
            <path d="M563.497,508.146C558.089,508.861 559.817,511.006 559.831,516.501C559.846,522.013 559.912,523.397 565.489,523.597C567.011,523.651 570.111,530.451 559.563,529.089C549.855,527.835 556.074,508.948 552.584,508.241C551.636,508.049 548.724,508.985 549.261,504.454C549.554,501.986 553.715,504.201 553.809,500.52C553.925,496.016 554.074,494.35 558.513,495.448C560.8,496.014 558.914,502.604 561.433,502.838C565.52,503.218 567.429,502.526 566.734,506.535C566.391,508.511 563.781,508.117 563.497,508.146Z" style="fill:rgb(40,48,54);"/>
            <path d="M684.494,508.136C679.04,508.819 680.794,511.002 680.785,516.507C680.776,521.751 680.295,523.528 685.5,523.53C688.151,523.531 690.155,529.266 683.491,529.185C667.715,528.993 678.167,509.532 673.56,508.36C673.122,508.249 668.028,506.953 670.583,503.557C671.217,502.715 674.619,503.588 674.715,500.515C674.858,495.933 675.116,494.241 679.507,495.476C681.676,496.086 679.888,502.548 682.443,502.805C686.789,503.243 688.937,503.336 687.071,507.263C686.701,508.043 686.483,507.748 684.494,508.136Z" style="fill:rgb(40,48,55);"/>
            <path d="M607.082,519.499C607.036,526.151 609.026,529.638 602.432,528.847C600.478,528.613 600.782,527.564 600.83,497.501C600.838,492.574 600.605,490.709 605.53,491.347C607.366,491.584 607.059,492.544 607.082,519.499Z" style="fill:rgb(43,51,58);"/>
            <path d="M635.047,505.506C634.844,525.49 636.124,528.787 632.515,528.829C627.546,528.887 628.78,526.038 628.752,508.499C628.735,498.224 628.111,492.929 630.542,492.828C630.916,492.812 634.688,492.656 634.947,494.406C635.077,495.285 635.05,495.277 635.047,505.506Z" style="fill:rgb(45,53,60);"/>
            <path d="M759.935,524.497C759.883,526.092 761.242,529.509 755.444,528.826C753.909,528.645 753.707,527.955 753.804,505.502C753.823,501.15 759.038,503.12 759.397,503.602C759.523,503.772 759.742,506.422 761.488,504.483C762.164,503.732 769.767,498.34 769.158,506.455C768.963,509.063 765.482,507.759 763.654,508.811C758.867,511.567 759.93,518.152 759.935,524.497Z" style="fill:rgb(38,47,54);"/>
            <path d="M846.523,523.819C832.187,522.412 839.979,502.506 850.167,508.99C851.557,509.874 858.624,520.369 846.523,523.819Z" style="fill:rgb(251,251,251);"/>
            <path d="M808.429,510.443C813.881,504.938 821.089,508.216 820.914,516.52C820.659,528.646 800.855,524.061 808.429,510.443Z" style="fill:rgb(251,251,251);"/>
            <path d="M462.607,508.198C476.441,516.909 458.309,531.657 453.75,518.417C452.638,515.189 453.979,511.895 454.851,510.735C457.568,507.12 458.158,507.772 462.607,508.198Z" style="fill:rgb(250,250,250);"/>
            <path d="M728.17,519.731C724.642,513.58 728.671,507.784 733.504,507.719C746.901,507.538 738.974,531.534 728.17,519.731Z" style="fill:rgb(250,250,250);"/>
            <path d="M479.356,513.5C479.403,506.35 476.36,502.601 483.472,502.866C485.819,502.953 485.484,504.153 485.538,523.5C485.55,527.75 485.675,529.148 481.474,528.823C478.532,528.595 479.365,523.453 479.356,513.5Z" style="fill:rgb(41,49,56);"/>
            <path d="M197.885,509.501C197.891,526.171 199.058,528.793 194.492,528.866C191.225,528.919 191.861,526.261 191.882,509.503C191.888,504.778 190.805,502.826 195.493,502.837C199.861,502.848 197.627,505.143 197.885,509.501Z" style="fill:rgb(40,48,55);"/>
            <path d="M382.07,504.669C384.495,511.524 385.898,514.575 383.524,514.661C382.871,514.684 375.553,514.949 375.444,513.508C375.373,512.564 376.086,512.745 379.199,502.296C380.27,498.7 381.984,504.383 382.07,504.669Z" style="fill:rgb(248,248,248);"/>
            <path d="M578.436,518.412C579.114,518.133 586.715,514.995 587.599,518.471C589.464,525.807 571.641,525.998 578.436,518.412Z" style="fill:rgb(248,248,248);"/>
            <path d="M787.427,522.43C778.943,528.537 776.813,519.528 780.679,517.914C782.514,517.147 787.586,517.117 788.381,517.684C789.94,518.797 787.648,522.112 787.427,522.43Z" style="fill:rgb(250,250,250);"/>
            <path d="M338.42,521.451C332.238,528.761 325.062,520.235 331.591,517.773C340.968,514.237 338.626,520.866 338.42,521.451Z" style="fill:rgb(248,248,249);"/>
            <path d="M503.501,513.05C502.831,513.055 502.162,512.993 501.493,512.998C492.735,513.066 503.85,502.866 509.045,509.787C511.851,513.527 508.101,512.7 503.501,513.05Z" style="fill:rgb(245,246,246);"/>
            <path d="M259.492,512.964C258.466,512.898 257.433,513.039 256.407,512.973C250.551,512.594 261.008,503.459 265.522,509.481C268.537,513.503 264.48,512.6 259.492,512.964Z" style="fill:rgb(246,246,246);"/>
            <path d="M705.506,512.961C702.483,513.019 695.658,514.197 699.443,509.448C704.252,503.414 713.724,512.473 708.624,512.955C707.589,513.053 706.541,512.863 705.506,512.961Z" style="fill:rgb(245,245,246);"/>
            <path d="M197.388,497.388C189.187,501.507 189.703,490.239 195.565,491.118C200.624,491.876 197.653,496.937 197.388,497.388Z" style="fill:rgb(41,49,57);"/>
            <path d="M480.342,497.728C478.625,495.84 478.373,495.748 479.124,493.368C479.2,493.127 479.671,491.634 481.418,491.196C487.78,489.601 487.856,501.083 480.342,497.728Z" style="fill:rgb(42,51,59);"/>
        </g>
    </g>
</svg>
