<?xml version="1.0" encoding="UTF-8" standalone="no"?>
<!DOCTYPE svg PUBLIC "-//W3C//DTD SVG 1.1//EN" "http://www.w3.org/Graphics/SVG/1.1/DTD/svg11.dtd">
<svg width="100%" height="100%" viewBox="0 0 1200 630" version="1.1" xmlns="http://www.w3.org/2000/svg" xmlns:xlink="http://www.w3.org/1999/xlink" xml:space="preserve" xmlns:serif="http://www.serif.com/" style="fill-rule:evenodd;clip-rule:evenodd;stroke-linejoin:round;stroke-miterlimit:2;">
    <g id="Fondo" transform="matrix(1.577957,0,0,1.649095,-581.82079,-225.880221)">
        <g transform="matrix(1,0,0,1,245.857011,-10.073341)">
            <path d="M445.496,449.842C433.993,448.907 440.66,439.803 444.238,433.356C459.385,406.071 559.74,219.515 588.99,166.754C600.496,145.999 619.937,153.959 626.071,161.838C628.692,165.203 701.167,298.256 703.021,301.736C764.767,417.641 765.334,417.318 770.65,427.424C777.136,439.755 785.381,449.791 770.5,449.825C723.799,449.929 722.915,450.053 719.903,446.152C718.86,444.801 667.689,351.376 666.674,349.421C665.6,347.35 667.903,333.998 668.695,326.525C670.095,313.326 662.781,318.497 653.537,320.733C650.871,321.379 651.406,319.753 643.702,306.38C610.136,248.118 611.097,241.154 607.83,245.747C607.416,246.328 582.274,292.278 573.889,307.723C567.915,318.728 499.666,444.451 499.14,445.238C495.466,450.746 493.996,449.776 445.496,449.842Z" style="fill:rgb(2,57,114);"/>
        </g>
        <g transform="matrix(1,0,0,1,245.857011,-10.073341)">
            <path d="M379.612,281.142C466.244,315.585 435.708,449.886 340.5,449.856C253.702,449.829 168.067,449.864 166.497,449.835C155.787,449.641 157.897,438.186 157.891,431.499C157.862,399.694 157.107,398.072 162.592,395.729C165.782,394.366 332.268,395.538 346.479,395.079C371.916,394.259 386.063,361.538 372.035,342.86C360.263,327.185 347.944,330.142 306.507,329.837C342.842,302.159 357.019,283.71 378.5,282.184L379.612,281.142Z" style="fill:rgb(54,149,17);"/>
        </g>
        <g transform="matrix(1,0,0,1,245.857011,-10.073341)">
            <path d="M239.506,275.174L238.5,276.763C215.922,288.076 213.36,309.784 195.279,316.01C193.77,316.53 193.306,317.788 193.283,317.809C182.577,311.015 168.819,300.843 159.833,276.375C155.451,264.443 151.36,239.755 159.201,215.41C171.68,176.665 205.61,157.315 231.536,154.961C245.077,153.731 245.079,154.203 401.5,154.446C416.049,154.469 421.891,151.935 421.918,166.498C421.991,205.433 422.434,207.072 417.627,208.823C413.96,210.159 251.22,209.049 241.499,209.46C201.74,211.14 194.326,271.041 239.506,275.174Z" style="fill:rgb(3,98,180);"/>
        </g>
        <g transform="matrix(1,0,0,1,245.857011,-10.073341)">
            <path d="M817.5,449.832C810.482,449.781 803.131,450.9 803.027,438.493C802.951,429.374 802.498,375.159 802.971,324.5C803.253,294.236 802.439,163.512 803.443,160.481C805.841,153.24 814.325,154.461 818.5,154.462C852.869,154.471 857.736,152.853 859.073,162.531C859.131,162.949 859.119,440.544 859.073,441.469C858.568,451.468 849.996,449.873 817.5,449.832Z" style="fill:rgb(2,57,115);"/>
        </g>
        <g transform="matrix(1,0,0,1,245.857011,-10.073341)">
            <path d="M658.077,340.437C651.945,381.748 640.348,407.464 612.621,428.669C588.442,447.161 549.198,451.887 548.223,448.631C547.352,445.724 557.852,419.444 571.717,402.678C597.941,370.968 616.353,370.181 613.762,367.34C612.677,366.151 578.218,381.014 559.924,407.789C550.549,421.51 547.533,430.561 546.821,432.697C542.564,445.471 542.15,405.907 562.845,377.76C582.651,350.823 605.269,343.594 655.43,330.253C660.834,328.816 658.607,336.437 658.077,340.437Z" style="fill:rgb(57,150,16);"/>
        </g>
        <g transform="matrix(1,0,0,1,245.857011,-10.073341)">
            <path d="M239.506,275.174C242.706,275.165 252.375,275.138 279.5,275.144C358.191,275.162 358.528,274.622 379.612,281.142L378.5,282.184C357.019,283.71 342.842,302.159 306.507,329.837C217.767,330.231 216.695,330.688 193.283,317.809C193.306,317.788 193.77,316.53 195.279,316.01C213.36,309.784 215.922,288.076 238.5,276.763L239.506,275.174Z" style="fill:rgb(2,58,116);"/>
        </g>
    </g>
    <g transform="matrix(0.907689,0,0,0.907689,4.620345,52.07991)">
        <g transform="matrix(68,0,0,68,50.353891,587.9801)">
            <path d="M0.316,0.014C0.259,0.014 0.203,0.007 0.15,-0.007C0.096,-0.021 0.053,-0.039 0.019,-0.061L0.087,-0.213C0.118,-0.193 0.155,-0.176 0.196,-0.164C0.237,-0.151 0.278,-0.145 0.318,-0.145C0.344,-0.145 0.365,-0.147 0.381,-0.152C0.397,-0.156 0.408,-0.162 0.416,-0.17C0.423,-0.178 0.427,-0.188 0.427,-0.198C0.427,-0.213 0.419,-0.225 0.405,-0.234C0.391,-0.243 0.372,-0.251 0.349,-0.256C0.325,-0.262 0.299,-0.268 0.271,-0.274C0.243,-0.28 0.215,-0.288 0.187,-0.297C0.159,-0.306 0.133,-0.318 0.11,-0.333C0.086,-0.348 0.067,-0.368 0.053,-0.393C0.039,-0.418 0.031,-0.449 0.031,-0.486C0.031,-0.528 0.043,-0.566 0.066,-0.6C0.089,-0.635 0.124,-0.663 0.171,-0.683C0.217,-0.704 0.275,-0.714 0.345,-0.714C0.391,-0.714 0.436,-0.709 0.481,-0.699C0.525,-0.689 0.565,-0.674 0.6,-0.653L0.538,-0.502C0.504,-0.52 0.471,-0.533 0.438,-0.542C0.406,-0.55 0.374,-0.555 0.343,-0.555C0.317,-0.555 0.296,-0.552 0.28,-0.547C0.264,-0.542 0.252,-0.534 0.245,-0.526C0.238,-0.517 0.235,-0.507 0.235,-0.496C0.235,-0.482 0.242,-0.47 0.256,-0.461C0.27,-0.453 0.289,-0.446 0.313,-0.44C0.336,-0.435 0.362,-0.429 0.39,-0.423C0.419,-0.417 0.447,-0.41 0.475,-0.401C0.503,-0.392 0.528,-0.38 0.552,-0.365C0.575,-0.35 0.594,-0.33 0.608,-0.305C0.623,-0.281 0.63,-0.25 0.63,-0.214C0.63,-0.173 0.618,-0.135 0.595,-0.1C0.572,-0.066 0.537,-0.038 0.491,-0.017C0.444,0.004 0.386,0.014 0.316,0.014Z" style="fill-rule:nonzero;"/>
        </g>
        <g transform="matrix(68,0,0,68,94.485891,587.9801)">
            <rect x="0.068" y="-0.7" width="0.206" height="0.7" style="fill-rule:nonzero;"/>
        </g>
        <g transform="matrix(68,0,0,68,117.673891,587.9801)">
            <path d="M0.316,0.014C0.259,0.014 0.203,0.007 0.15,-0.007C0.096,-0.021 0.053,-0.039 0.019,-0.061L0.087,-0.213C0.118,-0.193 0.155,-0.176 0.196,-0.164C0.237,-0.151 0.278,-0.145 0.318,-0.145C0.344,-0.145 0.365,-0.147 0.381,-0.152C0.397,-0.156 0.408,-0.162 0.416,-0.17C0.423,-0.178 0.427,-0.188 0.427,-0.198C0.427,-0.213 0.419,-0.225 0.405,-0.234C0.391,-0.243 0.372,-0.251 0.349,-0.256C0.325,-0.262 0.299,-0.268 0.271,-0.274C0.243,-0.28 0.215,-0.288 0.187,-0.297C0.159,-0.306 0.133,-0.318 0.11,-0.333C0.086,-0.348 0.067,-0.368 0.053,-0.393C0.039,-0.418 0.031,-0.449 0.031,-0.486C0.031,-0.528 0.043,-0.566 0.066,-0.6C0.089,-0.635 0.124,-0.663 0.171,-0.683C0.217,-0.704 0.275,-0.714 0.345,-0.714C0.391,-0.714 0.436,-0.709 0.481,-0.699C0.525,-0.689 0.565,-0.674 0.6,-0.653L0.538,-0.502C0.504,-0.52 0.471,-0.533 0.438,-0.542C0.406,-0.55 0.374,-0.555 0.343,-0.555C0.317,-0.555 0.296,-0.552 0.28,-0.547C0.264,-0.542 0.252,-0.534 0.245,-0.526C0.238,-0.517 0.235,-0.507 0.235,-0.496C0.235,-0.482 0.242,-0.47 0.256,-0.461C0.27,-0.453 0.289,-0.446 0.313,-0.44C0.336,-0.435 0.362,-0.429 0.39,-0.423C0.419,-0.417 0.447,-0.41 0.475,-0.401C0.503,-0.392 0.528,-0.38 0.552,-0.365C0.575,-0.35 0.594,-0.33 0.608,-0.305C0.623,-0.281 0.63,-0.25 0.63,-0.214C0.63,-0.173 0.618,-0.135 0.595,-0.1C0.572,-0.066 0.537,-0.038 0.491,-0.017C0.444,0.004 0.386,0.014 0.316,0.014Z" style="fill-rule:nonzero;"/>
        </g>
        <g transform="matrix(68,0,0,68,161.125891,587.9801)">
            <path d="M0.217,-0L0.217,-0.538L0.004,-0.538L0.004,-0.7L0.635,-0.7L0.635,-0.538L0.422,-0.538L0.422,-0L0.217,-0Z" style="fill-rule:nonzero;"/>
        </g>
        <g transform="matrix(68,0,0,68,204.577891,587.9801)">
            <path d="M0.068,-0L0.068,-0.7L0.62,-0.7L0.62,-0.542L0.27,-0.542L0.27,-0.158L0.633,-0.158L0.633,-0L0.068,-0ZM0.256,-0.279L0.256,-0.431L0.579,-0.431L0.579,-0.279L0.256,-0.279Z" style="fill-rule:nonzero;"/>
        </g>
        <g transform="matrix(68,0,0,68,250.273891,587.9801)">
            <path d="M0.068,-0L0.068,-0.7L0.237,-0.7L0.524,-0.228L0.435,-0.228L0.716,-0.7L0.885,-0.7L0.887,-0L0.698,-0L0.696,-0.413L0.728,-0.413L0.522,-0.068L0.431,-0.068L0.218,-0.413L0.257,-0.413L0.257,-0L0.068,-0Z" style="fill-rule:nonzero;"/>
        </g>
        <g transform="matrix(68,0,0,68,315.145891,587.9801)">
            <path d="M-0.015,-0L0.293,-0.7L0.496,-0.7L0.805,-0L0.591,-0L0.353,-0.6L0.433,-0.6L0.195,-0L-0.015,-0ZM0.157,-0.133L0.209,-0.284L0.547,-0.284L0.6,-0.133L0.157,-0.133Z" style="fill-rule:nonzero;"/>
        </g>
        <g transform="matrix(68,0,0,68,368.865891,587.9801)">
        </g>
        <g transform="matrix(68,0,0,68,388.789891,587.9801)">
            <path d="M-0.015,-0L0.293,-0.7L0.496,-0.7L0.805,-0L0.591,-0L0.353,-0.6L0.433,-0.6L0.195,-0L-0.015,-0ZM0.157,-0.133L0.209,-0.284L0.547,-0.284L0.6,-0.133L0.157,-0.133Z" style="fill-rule:nonzero;"/>
        </g>
        <g transform="matrix(68,0,0,68,442.509891,587.9801)">
            <path d="M0.068,-0L0.068,-0.7L0.237,-0.7L0.524,-0.228L0.435,-0.228L0.716,-0.7L0.885,-0.7L0.887,-0L0.698,-0L0.696,-0.413L0.728,-0.413L0.522,-0.068L0.431,-0.068L0.218,-0.413L0.257,-0.413L0.257,-0L0.068,-0Z" style="fill-rule:nonzero;"/>
        </g>
        <g transform="matrix(68,0,0,68,507.381891,587.9801)">
            <path d="M0.068,-0L0.068,-0.7L0.429,-0.7C0.522,-0.7 0.591,-0.683 0.636,-0.649C0.682,-0.615 0.704,-0.571 0.704,-0.517C0.704,-0.481 0.695,-0.45 0.676,-0.422C0.657,-0.395 0.63,-0.374 0.595,-0.358C0.56,-0.343 0.518,-0.335 0.469,-0.335L0.489,-0.384C0.539,-0.384 0.583,-0.376 0.62,-0.361C0.657,-0.346 0.686,-0.324 0.707,-0.296C0.728,-0.267 0.738,-0.233 0.738,-0.192C0.738,-0.132 0.714,-0.085 0.664,-0.051C0.615,-0.017 0.543,-0 0.449,-0L0.068,-0ZM0.27,-0.147L0.432,-0.147C0.464,-0.147 0.489,-0.153 0.506,-0.164C0.522,-0.175 0.531,-0.192 0.531,-0.215C0.531,-0.238 0.522,-0.255 0.506,-0.266C0.489,-0.278 0.464,-0.283 0.432,-0.283L0.256,-0.283L0.256,-0.424L0.401,-0.424C0.433,-0.424 0.457,-0.429 0.473,-0.44C0.489,-0.451 0.497,-0.467 0.497,-0.488C0.497,-0.51 0.489,-0.526 0.473,-0.537C0.457,-0.548 0.433,-0.553 0.401,-0.553L0.27,-0.553L0.27,-0.147Z" style="fill-rule:nonzero;"/>
        </g>
        <g transform="matrix(68,0,0,68,559.741891,587.9801)">
            <rect x="0.068" y="-0.7" width="0.206" height="0.7" style="fill-rule:nonzero;"/>
        </g>
        <g transform="matrix(68,0,0,68,582.929891,587.9801)">
            <path d="M0.068,-0L0.068,-0.7L0.62,-0.7L0.62,-0.542L0.27,-0.542L0.27,-0.158L0.633,-0.158L0.633,-0L0.068,-0ZM0.256,-0.279L0.256,-0.431L0.579,-0.431L0.579,-0.279L0.256,-0.279Z" style="fill-rule:nonzero;"/>
        </g>
        <g transform="matrix(68,0,0,68,628.625891,587.9801)">
            <path d="M0.068,-0L0.068,-0.7L0.237,-0.7L0.616,-0.242L0.537,-0.242L0.537,-0.7L0.738,-0.7L0.738,-0L0.569,-0L0.189,-0.458L0.269,-0.458L0.269,-0L0.068,-0Z" style="fill-rule:nonzero;"/>
        </g>
        <g transform="matrix(68,0,0,68,683.433891,587.9801)">
            <path d="M0.217,-0L0.217,-0.538L0.004,-0.538L0.004,-0.7L0.635,-0.7L0.635,-0.538L0.422,-0.538L0.422,-0L0.217,-0Z" style="fill-rule:nonzero;"/>
        </g>
        <g transform="matrix(68,0,0,68,724.505891,587.9801)">
            <path d="M-0.015,-0L0.293,-0.7L0.496,-0.7L0.805,-0L0.591,-0L0.353,-0.6L0.433,-0.6L0.195,-0L-0.015,-0ZM0.157,-0.133L0.209,-0.284L0.547,-0.284L0.6,-0.133L0.157,-0.133Z" style="fill-rule:nonzero;"/>
        </g>
        <g transform="matrix(68,0,0,68,778.225891,587.9801)">
            <path d="M0.068,-0L0.068,-0.7L0.273,-0.7L0.273,-0.162L0.604,-0.162L0.604,-0L0.068,-0Z" style="fill-rule:nonzero;"/>
        </g>
        <g transform="matrix(68,0,0,68,819.841891,587.9801)">
        </g>
        <g transform="matrix(68,0,0,68,839.765891,587.9801)">
            <rect x="0.068" y="-0.7" width="0.206" height="0.7" style="fill-rule:nonzero;"/>
        </g>
        <g transform="matrix(68,0,0,68,862.953891,587.9801)">
            <path d="M0.068,-0L0.068,-0.7L0.237,-0.7L0.616,-0.242L0.537,-0.242L0.537,-0.7L0.738,-0.7L0.738,-0L0.569,-0L0.189,-0.458L0.269,-0.458L0.269,-0L0.068,-0Z" style="fill-rule:nonzero;"/>
        </g>
        <g transform="matrix(68,0,0,68,917.761891,587.9801)">
            <path d="M0.217,-0L0.217,-0.538L0.004,-0.538L0.004,-0.7L0.635,-0.7L0.635,-0.538L0.422,-0.538L0.422,-0L0.217,-0Z" style="fill-rule:nonzero;"/>
        </g>
        <g transform="matrix(68,0,0,68,961.213891,587.9801)">
            <path d="M0.068,-0L0.068,-0.7L0.62,-0.7L0.62,-0.542L0.27,-0.542L0.27,-0.158L0.633,-0.158L0.633,-0L0.068,-0ZM0.256,-0.279L0.256,-0.431L0.579,-0.431L0.579,-0.279L0.256,-0.279Z" style="fill-rule:nonzero;"/>
        </g>
        <g transform="matrix(68,0,0,68,1006.909891,587.9801)">
            <path d="M0.42,0.014C0.364,0.014 0.313,0.005 0.265,-0.012C0.218,-0.03 0.177,-0.055 0.143,-0.088C0.108,-0.12 0.081,-0.159 0.062,-0.203C0.043,-0.248 0.033,-0.296 0.033,-0.35C0.033,-0.404 0.043,-0.452 0.062,-0.497C0.081,-0.541 0.108,-0.58 0.143,-0.612C0.178,-0.645 0.22,-0.67 0.267,-0.688C0.315,-0.705 0.367,-0.714 0.424,-0.714C0.491,-0.714 0.55,-0.703 0.603,-0.681C0.655,-0.659 0.699,-0.627 0.733,-0.585L0.602,-0.467C0.578,-0.493 0.553,-0.513 0.526,-0.526C0.498,-0.539 0.468,-0.545 0.435,-0.545C0.406,-0.545 0.379,-0.541 0.355,-0.532C0.331,-0.522 0.311,-0.509 0.294,-0.492C0.277,-0.475 0.264,-0.454 0.255,-0.43C0.245,-0.407 0.241,-0.38 0.241,-0.35C0.241,-0.321 0.245,-0.295 0.255,-0.271C0.264,-0.247 0.277,-0.226 0.294,-0.209C0.311,-0.192 0.331,-0.178 0.354,-0.169C0.378,-0.159 0.404,-0.155 0.432,-0.155C0.461,-0.155 0.489,-0.159 0.517,-0.169C0.544,-0.179 0.572,-0.195 0.601,-0.218L0.716,-0.075C0.675,-0.046 0.629,-0.024 0.576,-0.009C0.523,0.007 0.471,0.014 0.42,0.014ZM0.716,-0.075L0.535,-0.101L0.535,-0.366L0.716,-0.366L0.716,-0.075Z" style="fill-rule:nonzero;"/>
        </g>
        <g transform="matrix(68,0,0,68,1059.269891,587.9801)">
            <path d="M0.068,-0L0.068,-0.7L0.383,-0.7C0.486,-0.7 0.566,-0.677 0.621,-0.63C0.676,-0.584 0.704,-0.521 0.704,-0.44C0.704,-0.387 0.691,-0.341 0.665,-0.303C0.64,-0.264 0.604,-0.235 0.557,-0.215C0.51,-0.194 0.455,-0.184 0.391,-0.184L0.182,-0.184L0.273,-0.27L0.273,-0L0.068,-0ZM0.498,-0L0.324,-0.255L0.543,-0.255L0.718,-0L0.498,-0ZM0.273,-0.247L0.182,-0.342L0.378,-0.342C0.418,-0.342 0.447,-0.351 0.467,-0.368C0.486,-0.386 0.496,-0.41 0.496,-0.44C0.496,-0.471 0.486,-0.495 0.467,-0.512C0.447,-0.53 0.418,-0.539 0.378,-0.539L0.182,-0.539L0.273,-0.633L0.273,-0.247Z" style="fill-rule:nonzero;"/>
        </g>
        <g transform="matrix(68,0,0,68,1109.657891,587.9801)">
            <path d="M-0.015,-0L0.293,-0.7L0.496,-0.7L0.805,-0L0.591,-0L0.353,-0.6L0.433,-0.6L0.195,-0L-0.015,-0ZM0.157,-0.133L0.209,-0.284L0.547,-0.284L0.6,-0.133L0.157,-0.133Z" style="fill-rule:nonzero;"/>
        </g>
        <g transform="matrix(68,0,0,68,1163.377891,587.9801)">
            <path d="M0.068,-0L0.068,-0.7L0.402,-0.7C0.479,-0.7 0.547,-0.686 0.606,-0.657C0.664,-0.629 0.71,-0.588 0.743,-0.536C0.776,-0.484 0.793,-0.422 0.793,-0.35C0.793,-0.279 0.776,-0.217 0.743,-0.164C0.71,-0.112 0.664,-0.071 0.606,-0.043C0.547,-0.014 0.479,-0 0.402,-0L0.068,-0ZM0.273,-0.163L0.393,-0.163C0.431,-0.163 0.465,-0.17 0.494,-0.185C0.523,-0.2 0.545,-0.221 0.561,-0.249C0.577,-0.277 0.585,-0.311 0.585,-0.35C0.585,-0.39 0.577,-0.423 0.561,-0.451C0.545,-0.479 0.523,-0.5 0.494,-0.515C0.465,-0.53 0.431,-0.537 0.393,-0.537L0.273,-0.537L0.273,-0.163Z" style="fill-rule:nonzero;"/>
        </g>
        <g transform="matrix(68,0,0,68,1219.545891,587.9801)">
            <path d="M0.424,0.014C0.367,0.014 0.316,0.005 0.268,-0.013C0.22,-0.031 0.179,-0.056 0.144,-0.089C0.109,-0.122 0.082,-0.16 0.062,-0.205C0.043,-0.249 0.033,-0.298 0.033,-0.35C0.033,-0.403 0.043,-0.451 0.062,-0.495C0.082,-0.539 0.109,-0.578 0.144,-0.611C0.179,-0.644 0.22,-0.669 0.268,-0.687C0.315,-0.705 0.367,-0.714 0.423,-0.714C0.48,-0.714 0.532,-0.705 0.579,-0.687C0.626,-0.669 0.668,-0.644 0.702,-0.611C0.737,-0.578 0.764,-0.54 0.784,-0.496C0.803,-0.451 0.813,-0.403 0.813,-0.35C0.813,-0.298 0.803,-0.249 0.784,-0.205C0.764,-0.16 0.737,-0.122 0.702,-0.089C0.668,-0.056 0.626,-0.031 0.579,-0.013C0.532,0.005 0.48,0.014 0.424,0.014ZM0.423,-0.155C0.449,-0.155 0.473,-0.159 0.495,-0.168C0.517,-0.178 0.536,-0.191 0.553,-0.208C0.57,-0.225 0.582,-0.245 0.592,-0.269C0.601,-0.293 0.606,-0.32 0.606,-0.35C0.606,-0.38 0.601,-0.407 0.592,-0.431C0.583,-0.455 0.57,-0.475 0.553,-0.492C0.536,-0.509 0.517,-0.522 0.495,-0.532C0.473,-0.541 0.449,-0.545 0.423,-0.545C0.397,-0.545 0.373,-0.541 0.351,-0.532C0.329,-0.522 0.31,-0.509 0.293,-0.492C0.277,-0.475 0.264,-0.455 0.255,-0.431C0.245,-0.407 0.241,-0.38 0.241,-0.35C0.241,-0.32 0.245,-0.294 0.255,-0.269C0.264,-0.245 0.277,-0.225 0.293,-0.208C0.31,-0.191 0.329,-0.178 0.351,-0.168C0.373,-0.159 0.397,-0.155 0.423,-0.155Z" style="fill-rule:nonzero;"/>
        </g>
    </g>
</svg>
